# xmcd CD database file
#
# Track frame offsets:
#	150
#	19950
#	44745
#	72135
#	87604
#	109650
#	131040
#	148815
#	172372
#	188523
#	202239
#	214870
#	234718
#
# Disc length: 3414 seconds
#
# Revision: 2
# Processed by: cddbd v1.5.2PL0 Copyright (c) Steve Scherf et al.
# Submitted via: CDex 1.51
#
DISCID=d40d540d
DTITLE=Rita Coolidge - And So Is Love
DYEAR=2005
DGENRE=Rock
TTITLE0=Come Rain Or Come Shine
TTITLE1=Save Your Love For Me
TTITLE2=Cry Me A River
TTITLE3=I Thought About You
TTITLE4=We're All Alone
TTITLE5=Estate
TTITLE6=More Than You Know
TTITLE7=Sentimental Journey
TTITLE8=The Masquerade Is Over
TTITLE9=I Don't Know Enough About You
TTITLE10=Don't Smoke In Bed
TTITLE11=Don't Go To Strangers
TTITLE12=Estate (Alternative Version)
EXTD=YEAR: 2005
EXTT0=
EXTT1=
EXTT2=
EXTT3=
EXTT4=
EXTT5=
EXTT6=
EXTT7=
EXTT8=
EXTT9=
EXTT10=
EXTT11=
EXTT12=
PLAYORDER=
